<?xml version="1.0" encoding="UTF-8" standalone="no"?>
<!DOCTYPE svg PUBLIC "-//W3C//DTD SVG 1.1//EN"
 "http://www.w3.org/Graphics/SVG/1.1/DTD/svg11.dtd">
<!-- Generated by graphviz version 2.38.0 (20140413.2041)
 -->
<!-- Title: models_diagram Pages: 1 -->
<svg width="504pt" height="1192pt"
 viewBox="0.00 0.00 504.27 1192.00" xmlns="http://www.w3.org/2000/svg" xmlns:xlink="http://www.w3.org/1999/xlink">
<g id="graph0" class="graph" transform="scale(1 1) rotate(0) translate(4 1188)">
<title>models_diagram</title>
<polygon fill="white" stroke="none" points="-4,4 -4,-1188 500.272,-1188 500.272,4 -4,4"/>
<!-- Address -->
<g id="node1" class="node"><title>Address</title>
<polygon fill="none" stroke="black" points="2.84217e-14,-610.5 2.84217e-14,-895.3 140.796,-895.3 140.796,-610.5 2.84217e-14,-610.5"/>
<text text-anchor="middle" x="70.398" y="-878.7" font-family="Times,serif" font-size="14.00">Address</text>
<polyline fill="none" stroke="black" points="2.84217e-14,-870.5 140.796,-870.5 "/>
<text text-anchor="start" x="8" y="-853.9" font-family="Times,serif" font-size="14.00">id :undefined</text>
<text text-anchor="start" x="8" y="-837.1" font-family="Times,serif" font-size="14.00">city :undefined</text>
<text text-anchor="start" x="8" y="-820.3" font-family="Times,serif" font-size="14.00">country :undefined</text>
<text text-anchor="start" x="8" y="-803.5" font-family="Times,serif" font-size="14.00">createdAt :undefined</text>
<text text-anchor="start" x="8" y="-786.7" font-family="Times,serif" font-size="14.00">deletedAt :undefined</text>
<text text-anchor="start" x="8" y="-769.9" font-family="Times,serif" font-size="14.00">lineOne :undefined</text>
<text text-anchor="start" x="8" y="-753.1" font-family="Times,serif" font-size="14.00">placeId :undefined</text>
<text text-anchor="start" x="8" y="-736.3" font-family="Times,serif" font-size="14.00">state :undefined</text>
<text text-anchor="start" x="8" y="-719.5" font-family="Times,serif" font-size="14.00">street :undefined</text>
<text text-anchor="start" x="8" y="-702.7" font-family="Times,serif" font-size="14.00">timeZone :undefined</text>
<text text-anchor="start" x="8" y="-685.9" font-family="Times,serif" font-size="14.00">updatedAt :undefined</text>
<text text-anchor="start" x="8" y="-669.1" font-family="Times,serif" font-size="14.00">zipCode :undefined</text>
<text text-anchor="start" x="8" y="-652.3" font-family="Times,serif" font-size="14.00">created_at :undefined</text>
<text text-anchor="start" x="8" y="-635.5" font-family="Times,serif" font-size="14.00">updated_at :undefined</text>
<text text-anchor="start" x="8" y="-618.7" font-family="Times,serif" font-size="14.00">deleted_at :undefined</text>
</g>
<!-- Band -->
<g id="node2" class="node"><title>Band</title>
<polygon fill="none" stroke="black" points="204.609,-288.7 204.609,-556.7 346.187,-556.7 346.187,-288.7 204.609,-288.7"/>
<text text-anchor="middle" x="275.398" y="-540.1" font-family="Times,serif" font-size="14.00">Band</text>
<polyline fill="none" stroke="black" points="204.609,-531.9 346.187,-531.9 "/>
<text text-anchor="start" x="212.609" y="-515.3" font-family="Times,serif" font-size="14.00">id :undefined</text>
<text text-anchor="start" x="212.609" y="-498.5" font-family="Times,serif" font-size="14.00">bandcamp :undefined</text>
<text text-anchor="start" x="212.609" y="-481.7" font-family="Times,serif" font-size="14.00">createdAt :undefined</text>
<text text-anchor="start" x="212.609" y="-464.9" font-family="Times,serif" font-size="14.00">deletedAt :undefined</text>
<text text-anchor="start" x="212.609" y="-448.1" font-family="Times,serif" font-size="14.00">description :undefined</text>
<text text-anchor="start" x="212.609" y="-431.3" font-family="Times,serif" font-size="14.00">genreId :undefined</text>
<text text-anchor="start" x="212.609" y="-414.5" font-family="Times,serif" font-size="14.00">label :undefined</text>
<text text-anchor="start" x="212.609" y="-397.7" font-family="Times,serif" font-size="14.00">name :undefined</text>
<text text-anchor="start" x="212.609" y="-380.9" font-family="Times,serif" font-size="14.00">tagline :undefined</text>
<text text-anchor="start" x="212.609" y="-364.1" font-family="Times,serif" font-size="14.00">updatedAt :undefined</text>
<text text-anchor="start" x="212.609" y="-347.3" font-family="Times,serif" font-size="14.00">website :undefined</text>
<text text-anchor="start" x="212.609" y="-330.5" font-family="Times,serif" font-size="14.00">created_at :undefined</text>
<text text-anchor="start" x="212.609" y="-313.7" font-family="Times,serif" font-size="14.00">updated_at :undefined</text>
<text text-anchor="start" x="212.609" y="-296.9" font-family="Times,serif" font-size="14.00">deleted_at :undefined</text>
</g>
<!-- Genre -->
<g id="node3" class="node"><title>Genre</title>
<polygon fill="none" stroke="black" points="314,-34.1 314,-201.3 454.796,-201.3 454.796,-34.1 314,-34.1"/>
<text text-anchor="middle" x="384.398" y="-184.7" font-family="Times,serif" font-size="14.00">Genre</text>
<polyline fill="none" stroke="black" points="314,-176.5 454.796,-176.5 "/>
<text text-anchor="start" x="322" y="-159.9" font-family="Times,serif" font-size="14.00">id :undefined</text>
<text text-anchor="start" x="322" y="-143.1" font-family="Times,serif" font-size="14.00">createdAt :undefined</text>
<text text-anchor="start" x="322" y="-126.3" font-family="Times,serif" font-size="14.00">deletedAt :undefined</text>
<text text-anchor="start" x="322" y="-109.5" font-family="Times,serif" font-size="14.00">name :undefined</text>
<text text-anchor="start" x="322" y="-92.7" font-family="Times,serif" font-size="14.00">updatedAt :undefined</text>
<text text-anchor="start" x="322" y="-75.9" font-family="Times,serif" font-size="14.00">created_at :undefined</text>
<text text-anchor="start" x="322" y="-59.1" font-family="Times,serif" font-size="14.00">updated_at :undefined</text>
<text text-anchor="start" x="322" y="-42.3" font-family="Times,serif" font-size="14.00">deleted_at :undefined</text>
</g>
<!-- Band&#45;&gt;Genre -->
<g id="edge1" class="edge"><title>Band&#45;&gt;Genre</title>
<path fill="none" stroke="black" d="M326.861,-278.641C335.368,-254.995 343.973,-231.073 351.846,-209.19"/>
<polygon fill="black" stroke="black" points="326.751,-278.949 319.131,-286.836 325.058,-283.654 323.366,-288.359 323.366,-288.359 323.366,-288.359 325.058,-283.654 327.6,-289.882 326.751,-278.949 326.751,-278.949"/>
<ellipse fill="none" stroke="black" cx="353.244" cy="-205.302" rx="4.00001" ry="4.00001"/>
</g>
<!-- Show -->
<g id="node4" class="node"><title>Show</title>
<polygon fill="none" stroke="black" points="146.609,-0.5 146.609,-234.9 288.187,-234.9 288.187,-0.5 146.609,-0.5"/>
<text text-anchor="middle" x="217.398" y="-218.3" font-family="Times,serif" font-size="14.00">Show</text>
<polyline fill="none" stroke="black" points="146.609,-210.1 288.187,-210.1 "/>
<text text-anchor="start" x="154.609" y="-193.5" font-family="Times,serif" font-size="14.00">id :undefined</text>
<text text-anchor="start" x="154.609" y="-176.7" font-family="Times,serif" font-size="14.00">createdAt :undefined</text>
<text text-anchor="start" x="154.609" y="-159.9" font-family="Times,serif" font-size="14.00">deletedAt :undefined</text>
<text text-anchor="start" x="154.609" y="-143.1" font-family="Times,serif" font-size="14.00">description :undefined</text>
<text text-anchor="start" x="154.609" y="-126.3" font-family="Times,serif" font-size="14.00">endsAt :undefined</text>
<text text-anchor="start" x="154.609" y="-109.5" font-family="Times,serif" font-size="14.00">startsAt :undefined</text>
<text text-anchor="start" x="154.609" y="-92.7" font-family="Times,serif" font-size="14.00">title :undefined</text>
<text text-anchor="start" x="154.609" y="-75.9" font-family="Times,serif" font-size="14.00">updatedAt :undefined</text>
<text text-anchor="start" x="154.609" y="-59.1" font-family="Times,serif" font-size="14.00">venueId :undefined</text>
<text text-anchor="start" x="154.609" y="-42.3" font-family="Times,serif" font-size="14.00">created_at :undefined</text>
<text text-anchor="start" x="154.609" y="-25.5" font-family="Times,serif" font-size="14.00">updated_at :undefined</text>
<text text-anchor="start" x="154.609" y="-8.7" font-family="Times,serif" font-size="14.00">deleted_at :undefined</text>
</g>
<!-- Band&#45;&gt;Show -->
<g id="edge3" class="edge"><title>Band&#45;&gt;Show</title>
<path fill="none" stroke="black" d="M220.131,-278.791C219.508,-275.915 218.93,-273.049 218.402,-270.2 216.887,-262.021 215.73,-253.551 214.867,-244.986"/>
<polygon fill="black" stroke="black" points="220.148,-278.862 218.033,-289.622 221.282,-283.732 222.416,-288.601 222.416,-288.601 222.416,-288.601 221.282,-283.732 226.799,-287.58 220.148,-278.862 220.148,-278.862"/>
<polygon fill="black" stroke="black" points="214.856,-244.862 218.468,-234.508 214.421,-239.881 213.985,-234.9 213.985,-234.9 213.985,-234.9 214.421,-239.881 209.502,-235.292 214.856,-244.862 214.856,-244.862"/>
<text text-anchor="middle" x="236.896" y="-257.6" font-family="Times,serif" font-size="14.00">shows</text>
</g>
<!-- User -->
<g id="node5" class="node"><title>User</title>
<polygon fill="none" stroke="black" points="196.669,-610.5 196.669,-895.3 356.127,-895.3 356.127,-610.5 196.669,-610.5"/>
<text text-anchor="middle" x="276.398" y="-878.7" font-family="Times,serif" font-size="14.00">User</text>
<polyline fill="none" stroke="black" points="196.669,-870.5 356.127,-870.5 "/>
<text text-anchor="start" x="204.669" y="-853.9" font-family="Times,serif" font-size="14.00">id :undefined</text>
<text text-anchor="start" x="204.669" y="-837.1" font-family="Times,serif" font-size="14.00">addressId :undefined</text>
<text text-anchor="start" x="204.669" y="-820.3" font-family="Times,serif" font-size="14.00">createdAt :undefined</text>
<text text-anchor="start" x="204.669" y="-803.5" font-family="Times,serif" font-size="14.00">deletedAt :undefined</text>
<text text-anchor="start" x="204.669" y="-786.7" font-family="Times,serif" font-size="14.00">email :undefined</text>
<text text-anchor="start" x="204.669" y="-769.9" font-family="Times,serif" font-size="14.00">firstName :undefined</text>
<text text-anchor="start" x="204.669" y="-753.1" font-family="Times,serif" font-size="14.00">lastLoginDate :undefined</text>
<text text-anchor="start" x="204.669" y="-736.3" font-family="Times,serif" font-size="14.00">lastName :undefined</text>
<text text-anchor="start" x="204.669" y="-719.5" font-family="Times,serif" font-size="14.00">password :undefined</text>
<text text-anchor="start" x="204.669" y="-702.7" font-family="Times,serif" font-size="14.00">phoneNumber :undefined</text>
<text text-anchor="start" x="204.669" y="-685.9" font-family="Times,serif" font-size="14.00">updatedAt :undefined</text>
<text text-anchor="start" x="204.669" y="-669.1" font-family="Times,serif" font-size="14.00">username :undefined</text>
<text text-anchor="start" x="204.669" y="-652.3" font-family="Times,serif" font-size="14.00">created_at :undefined</text>
<text text-anchor="start" x="204.669" y="-635.5" font-family="Times,serif" font-size="14.00">updated_at :undefined</text>
<text text-anchor="start" x="204.669" y="-618.7" font-family="Times,serif" font-size="14.00">deleted_at :undefined</text>
</g>
<!-- Band&#45;&gt;User -->
<g id="edge2" class="edge"><title>Band&#45;&gt;User</title>
<path fill="none" stroke="black" d="M277.338,-566.899C277.36,-569.689 277.38,-572.459 277.398,-575.2 277.451,-583.269 277.483,-591.546 277.497,-599.902"/>
<polygon fill="black" stroke="black" points="277.337,-566.716 281.753,-556.679 277.295,-561.716 277.253,-556.716 277.253,-556.716 277.253,-556.716 277.295,-561.716 272.753,-556.754 277.337,-566.716 277.337,-566.716"/>
<polygon fill="black" stroke="black" points="277.497,-600.126 273.006,-610.13 277.502,-605.126 277.506,-610.126 277.506,-610.126 277.506,-610.126 277.502,-605.126 282.006,-610.122 277.497,-600.126 277.497,-600.126"/>
<text text-anchor="middle" x="292.78" y="-579.4" font-family="Times,serif" font-size="14.00">users</text>
</g>
<!-- Venue -->
<g id="node6" class="node"><title>Venue</title>
<polygon fill="none" stroke="black" points="205.609,-949.1 205.609,-1183.5 347.187,-1183.5 347.187,-949.1 205.609,-949.1"/>
<text text-anchor="middle" x="276.398" y="-1166.9" font-family="Times,serif" font-size="14.00">Venue</text>
<polyline fill="none" stroke="black" points="205.609,-1158.7 347.187,-1158.7 "/>
<text text-anchor="start" x="213.609" y="-1142.1" font-family="Times,serif" font-size="14.00">id :undefined</text>
<text text-anchor="start" x="213.609" y="-1125.3" font-family="Times,serif" font-size="14.00">addressId :undefined</text>
<text text-anchor="start" x="213.609" y="-1108.5" font-family="Times,serif" font-size="14.00">createdAt :undefined</text>
<text text-anchor="start" x="213.609" y="-1091.7" font-family="Times,serif" font-size="14.00">deletedAt :undefined</text>
<text text-anchor="start" x="213.609" y="-1074.9" font-family="Times,serif" font-size="14.00">description :undefined</text>
<text text-anchor="start" x="213.609" y="-1058.1" font-family="Times,serif" font-size="14.00">name :undefined</text>
<text text-anchor="start" x="213.609" y="-1041.3" font-family="Times,serif" font-size="14.00">tagline :undefined</text>
<text text-anchor="start" x="213.609" y="-1024.5" font-family="Times,serif" font-size="14.00">updatedAt :undefined</text>
<text text-anchor="start" x="213.609" y="-1007.7" font-family="Times,serif" font-size="14.00">created_at :undefined</text>
<text text-anchor="start" x="213.609" y="-990.9" font-family="Times,serif" font-size="14.00">updated_at :undefined</text>
<text text-anchor="start" x="213.609" y="-974.1" font-family="Times,serif" font-size="14.00">deleted_at :undefined</text>
<text text-anchor="start" x="213.609" y="-957.3" font-family="Times,serif" font-size="14.00">address_id :undefined</text>
</g>
<!-- Genre&#45;&gt;Venue -->
<g id="edge4" class="edge"><title>Genre&#45;&gt;Venue</title>
<path fill="none" stroke="black" d="M409.588,-211.572C446.841,-367.454 501.749,-688.425 398.398,-930.6 388.176,-954.553 371.862,-977.064 354.447,-996.572"/>
<polygon fill="black" stroke="black" points="409.514,-211.266 411.535,-200.488 408.337,-206.406 407.161,-201.546 407.161,-201.546 407.161,-201.546 408.337,-206.406 402.788,-202.605 409.514,-211.266 409.514,-211.266"/>
<polygon fill="black" stroke="black" points="354.228,-996.811 344.151,-1001.14 350.847,-1000.49 347.466,-1004.18 347.466,-1004.18 347.466,-1004.18 350.847,-1000.49 350.781,-1007.22 354.228,-996.811 354.228,-996.811"/>
<text text-anchor="middle" x="476.835" y="-579.4" font-family="Times,serif" font-size="14.00">venues</text>
</g>
<!-- Show&#45;&gt;Band -->
<g id="edge6" class="edge"><title>Show&#45;&gt;Band</title>
<path fill="none" stroke="black" d="M251.637,-244.808C252.248,-247.695 252.836,-250.562 253.398,-253.4 255.024,-261.606 256.559,-270.063 258.005,-278.612"/>
<polygon fill="black" stroke="black" points="251.613,-244.7 253.877,-233.971 250.547,-239.815 249.48,-234.931 249.48,-234.931 249.48,-234.931 250.547,-239.815 245.084,-235.89 251.613,-244.7 251.613,-244.7"/>
<polygon fill="black" stroke="black" points="258.038,-278.815 255.22,-289.412 258.85,-283.749 259.661,-288.682 259.661,-288.682 259.661,-288.682 258.85,-283.749 264.101,-287.952 258.038,-278.815 258.038,-278.815"/>
<text text-anchor="middle" x="272.728" y="-257.6" font-family="Times,serif" font-size="14.00">bands</text>
</g>
<!-- Show&#45;&gt;Venue -->
<g id="edge5" class="edge"><title>Show&#45;&gt;Venue</title>
<path fill="none" stroke="black" d="M191.331,-245.031C164.032,-400.618 132.167,-671.807 187.398,-895.8 191.125,-910.914 196.467,-926.171 202.709,-941.014"/>
<polygon fill="black" stroke="black" points="191.373,-244.798 197.552,-235.739 192.247,-239.875 193.122,-234.952 193.122,-234.952 193.122,-234.952 192.247,-239.875 188.691,-234.165 191.373,-244.798 191.373,-244.798"/>
<ellipse fill="none" stroke="black" cx="204.462" cy="-945.063" rx="4.00001" ry="4.00001"/>
</g>
<!-- User&#45;&gt;Band -->
<g id="edge7" class="edge"><title>User&#45;&gt;Band</title>
<path fill="none" stroke="black" d="M239.563,-600.448C239.45,-591.929 239.805,-583.47 240.739,-575.2 241.047,-572.467 241.387,-569.71 241.753,-566.938"/>
<polygon fill="black" stroke="black" points="239.564,-600.474 235.408,-610.622 239.735,-605.471 239.905,-610.468 239.905,-610.468 239.905,-610.468 239.735,-605.471 244.403,-610.315 239.564,-600.474 239.564,-600.474"/>
<polygon fill="black" stroke="black" points="241.782,-566.738 247.65,-557.475 242.488,-561.788 243.195,-556.839 243.195,-556.839 243.195,-556.839 242.488,-561.788 238.74,-556.203 241.782,-566.738 241.782,-566.738"/>
<text text-anchor="middle" x="257.728" y="-579.4" font-family="Times,serif" font-size="14.00">bands</text>
</g>
<!-- User&#45;&gt;Venue -->
<g id="edge8" class="edge"><title>User&#45;&gt;Venue</title>
<path fill="none" stroke="black" d="M280.569,-905.895C280.571,-914.252 280.518,-922.529 280.398,-930.6 280.358,-933.303 280.313,-936.036 280.265,-938.792"/>
<polygon fill="black" stroke="black" points="280.569,-905.67 285.041,-895.658 280.555,-900.67 280.541,-895.67 280.541,-895.67 280.541,-895.67 280.555,-900.67 276.041,-895.682 280.569,-905.67 280.569,-905.67"/>
<polygon fill="black" stroke="black" points="280.263,-938.853 275.572,-948.765 280.167,-943.852 280.071,-948.851 280.071,-948.851 280.071,-948.851 280.167,-943.852 284.571,-948.938 280.263,-938.853 280.263,-938.853"/>
<text text-anchor="middle" x="300.835" y="-918" font-family="Times,serif" font-size="14.00">venues</text>
</g>
<!-- Venue&#45;&gt;Address -->
<g id="edge9" class="edge"><title>Venue&#45;&gt;Address</title>
<path fill="none" stroke="black" d="M198.739,-987.234C183.032,-969.41 167.374,-949.986 154.398,-930.6 148.393,-921.628 142.583,-912.16 137.014,-902.457"/>
<polygon fill="black" stroke="black" points="198.807,-987.309 202.109,-997.766 202.137,-991.039 205.466,-994.769 205.466,-994.769 205.466,-994.769 202.137,-991.039 208.823,-991.772 198.807,-987.309 198.807,-987.309"/>
<ellipse fill="none" stroke="black" cx="134.97" cy="-898.837" rx="4.00002" ry="4.00002"/>
</g>
<!-- Venue&#45;&gt;Genre -->
<g id="edge10" class="edge"><title>Venue&#45;&gt;Genre</title>
<path fill="none" stroke="black" d="M350.409,-939.286C356.426,-924.978 361.63,-910.315 365.398,-895.8 427.733,-655.663 410.338,-359.675 395.579,-211.887"/>
<polygon fill="black" stroke="black" points="350.333,-939.462 342.218,-946.838 348.339,-944.048 346.345,-948.633 346.345,-948.633 346.345,-948.633 348.339,-944.048 350.471,-950.427 350.333,-939.462 350.333,-939.462"/>
<polygon fill="black" stroke="black" points="395.535,-211.454 398.999,-201.05 395.029,-206.48 394.522,-201.506 394.522,-201.506 394.522,-201.506 395.029,-206.48 390.045,-201.961 395.535,-211.454 395.535,-211.454"/>
<text text-anchor="middle" x="426.665" y="-579.4" font-family="Times,serif" font-size="14.00">genres</text>
</g>
<!-- Venue&#45;&gt;User -->
<g id="edge11" class="edge"><title>Venue&#45;&gt;User</title>
<path fill="none" stroke="black" d="M248.598,-938.914C248.246,-936.122 247.924,-933.348 247.634,-930.6 246.775,-922.469 246.397,-914.144 246.409,-905.75"/>
<polygon fill="black" stroke="black" points="248.634,-939.184 245.532,-949.702 249.312,-944.138 249.99,-949.092 249.99,-949.092 249.99,-949.092 249.312,-944.138 254.449,-948.482 248.634,-939.184 248.634,-939.184"/>
<polygon fill="black" stroke="black" points="246.414,-905.483 251.111,-895.574 246.513,-900.484 246.612,-895.485 246.612,-895.485 246.612,-895.485 246.513,-900.484 242.112,-895.396 246.414,-905.483 246.414,-905.483"/>
<text text-anchor="middle" x="262.78" y="-918" font-family="Times,serif" font-size="14.00">users</text>
</g>
</g>
</svg>
